<?xml version="1.0" standalone="yes"?>
<svg xmlns="http://www.w3.org/2000/svg" width="2048" height="2048">
<path style="fill:#677ba9; stroke:none;" d="M971 55.4244C953.231 57.7572 934.894 57.4381 917 59.1698C876.76 63.0638 836.347 69.5586 797 78.8843C627.368 119.089 473.923 203.584 348 324.039C202.903 462.835 108.308 651.84 75.081 849C65.2906 907.093 63 965.228 63 1024C63 1115.27 72.3013 1205.87 97.4275 1294C144.541 1459.25 234.927 1612.47 361 1729.91C575.79 1929.99 873.229 2017.82 1163 1979.72C1310.05 1960.38 1450.4 1909.4 1574 1827C1664.88 1766.41 1745.06 1689.96 1809.85 1602C2016.6 1321.29 2054.8 925.913 1909.69 609C1842.68 462.655 1738.56 334.379 1609 238.884C1516.92 171.017 1412.18 120.201 1302 89.5756C1218.41 66.3401 1132.62 55 1046 55C1021.55 55 995.235 52.2428 971 55.4244z"/>
<path style="fill:#73b7bd; stroke:none;" d="M1016 92.4244C987.282 96.1947 957.883 95.4838 929 99.2816C860.935 108.231 793.727 123.655 729 146.692C473.699 237.555 261.039 441.02 164.424 695C135.904 769.974 116.523 847.392 106.715 927C102.651 959.993 98.5829 994.74 100.039 1028C107.522 1198.87 155.115 1364.84 247.053 1510C429.611 1798.24 780.77 1985.42 1124 1942.72C1293.9 1921.58 1456.62 1855.44 1592 1750.33C1808.04 1582.61 1950.25 1315 1956.99 1040C1966.73 642.217 1690.26 267.402 1316 142.645C1247.33 119.755 1177.07 104.037 1105 96.8311C1076.55 93.9867 1044.5 88.6832 1016 92.4244z"/>
<path style="fill:#677ba9; stroke:none;" d="M527 1670C537.175 1670 554.554 1674.16 563.826 1668.97C574.044 1663.25 582.463 1645.34 589.371 1636C608.883 1609.62 628.44 1583.25 648.127 1557C736.448 1439.24 823.782 1320.74 912.127 1203C939.288 1166.8 966.264 1130.43 993.116 1094C999.763 1084.98 1006.4 1075.96 1013.13 1067C1014.82 1064.74 1017.71 1059.06 1021 1059.06C1024.29 1059.06 1027.18 1064.74 1028.87 1067C1035.6 1075.96 1042.24 1084.98 1048.88 1094C1075.74 1130.43 1102.71 1166.8 1129.87 1203C1218.22 1320.74 1305.55 1439.24 1393.87 1557C1413.56 1583.25 1432.99 1609.71 1452.63 1636C1459.6 1645.34 1467.92 1663.23 1478.17 1668.97C1487.45 1674.17 1504.81 1670 1515 1670C1515 1659.21 1518 1643.12 1514.16 1633C1507.62 1615.79 1489.23 1598.96 1478.42 1584C1449.71 1544.24 1419.88 1505.17 1390.37 1466C1315.15 1366.13 1241.54 1265.02 1166.52 1165C1139.32 1128.72 1112.02 1092.5 1085.12 1056C1072.54 1038.93 1057.64 1022.23 1046.83 1004C1042.22 996.231 1044.93 982.775 1045 973.996C1045.17 950.333 1045 926.663 1045 903L1045 638L1045 397C1045 379.154 1051.38 347.98 1037 335.424C1033.82 332.649 1028.68 325.873 1024 326.256C1019.44 326.629 1014.98 333.006 1012 336C997.631 350.445 1004 381.6 1004 401L1004 646C1004 730.013 1003 814.013 1003 898L1003 967C1003 975.59 1005.36 988.326 1001.06 996C989.624 1016.37 972.367 1035.26 958.374 1054C930.235 1091.68 902.113 1129.38 873.895 1167C799.387 1266.34 726.34 1366.81 651.626 1466C622.12 1505.17 592.285 1544.24 563.576 1584C552.772 1598.96 534.383 1615.79 527.843 1633C523.997 1643.12 527 1659.21 527 1670z"/>
<path style="fill:#677ba9; stroke:none;" d="M1508 959.464C1437.57 971.908 1431.64 1080.73 1504 1095.55C1513.17 1097.43 1523.74 1098.02 1533 1096.39C1543.09 1094.6 1552.58 1091.17 1561 1085.28C1621.19 1043.14 1579.87 946.764 1508 959.464z"/>
<path style="fill:#677ba9; stroke:none;" d="M316 1008L316 1046L792 1044L792 1007L316 1008z"/>
</svg>
