<?xml version="1.0" standalone="no"?>
<!DOCTYPE svg PUBLIC "-//W3C//DTD SVG 20010904//EN"
 "http://www.w3.org/TR/2001/REC-SVG-20010904/DTD/svg10.dtd">
<svg version="1.0" xmlns="http://www.w3.org/2000/svg"
 width="2048.000000pt" height="2048.000000pt" viewBox="0 0 2048.000000 2048.000000"
 preserveAspectRatio="xMidYMid meet">

<g transform="translate(0.000000,2048.000000) scale(0.100000,-0.100000)"
fill="#677ba9" stroke="none" >
<path d="M9590 19920 c-1441 -91 -2745 -463 -4015 -1148 -455 -245 -977 -592
-1379 -917 -54 -44 -111 -89 -126 -100 -15 -11 -122 -104 -236 -205 -266 -235
-612 -581 -829 -830 -167 -191 -187 -216 -313 -372 -70 -86 -269 -351 -322
-429 -19 -28 -49 -69 -65 -92 -68 -93 -272 -413 -350 -547 -17 -30 -57 -98
-87 -150 -218 -376 -471 -918 -636 -1360 -318 -854 -498 -1667 -578 -2605 -21
-253 -31 -1217 -15 -1522 59 -1124 298 -2178 724 -3199 606 -1448 1569 -2732
2792 -3721 1008 -816 2180 -1418 3440 -1767 481 -133 975 -229 1480 -285 609
-69 1533 -80 2175 -26 1622 137 3170 682 4518 1592 287 194 503 355 745 559
66 54 140 116 165 137 156 129 642 601 734 712 18 23 98 115 178 205 80 91
157 179 170 196 14 17 70 87 125 155 93 116 167 213 255 334 20 28 54 75 76
105 210 290 518 803 709 1180 263 521 441 972 652 1655 32 105 143 558 177
725 88 428 144 853 178 1335 17 243 17 1229 0 1475 -71 1019 -267 1922 -614
2825 -168 436 -398 926 -589 1255 -14 25 -45 79 -69 120 -592 1025 -1414 1969
-2354 2703 -94 74 -248 190 -276 209 -14 10 -70 49 -125 88 -461 326 -969 617
-1500 860 -1035 473 -2085 743 -3270 841 -170 14 -1355 21 -1545 9z m1155
-381 c1243 -85 2465 -412 3551 -952 402 -199 767 -409 1059 -607 161 -109 280
-192 340 -236 39 -29 87 -65 108 -81 38 -28 52 -39 192 -148 327 -254 779
-674 1077 -1000 30 -33 81 -89 114 -125 69 -75 280 -327 348 -415 377 -486
620 -855 903 -1370 85 -154 299 -599 373 -775 420 -995 653 -1950 742 -3050
19 -233 16 -830 -5 -1075 -63 -720 -176 -1322 -372 -1985 -262 -887 -716
-1841 -1234 -2593 -47 -67 -99 -142 -116 -167 -32 -47 -203 -276 -277 -371
-446 -574 -1089 -1203 -1718 -1680 -473 -359 -941 -650 -1490 -925 -838 -420
-1748 -716 -2670 -868 -835 -138 -1504 -159 -2275 -71 -1350 155 -2642 592
-3810 1290 -356 213 -843 559 -1170 832 -252 210 -334 285 -584 529 -264 258
-428 437 -669 728 -949 1145 -1634 2556 -1947 4009 -151 705 -233 1529 -206
2077 30 601 98 1112 221 1665 171 772 455 1552 822 2265 55 107 118 227 141
265 22 39 58 102 80 140 38 67 60 103 157 260 66 107 268 411 329 495 55 76
175 236 221 295 14 17 39 50 55 71 228 299 680 787 1020 1101 144 133 461 402
576 488 15 11 71 54 125 95 55 41 110 83 124 93 14 9 63 45 110 78 597 425
1283 797 1970 1068 246 98 298 117 505 185 1100 365 2286 533 3280 465z"/>
<path d="M10138 17132 c-48 -48 -89 -99 -92 -113 -3 -13 -7 -1475 -8 -3249
l-3 -3225 -44 -65 c-24 -36 -175 -240 -336 -455 -160 -214 -430 -577 -600
-805 -170 -228 -419 -563 -555 -745 -135 -181 -383 -514 -550 -740 -168 -225
-420 -563 -560 -751 -140 -188 -415 -557 -610 -819 -195 -262 -481 -647 -636
-854 -522 -700 -720 -966 -789 -1061 -38 -52 -73 -96 -77 -98 -5 -2 -8 -87 -8
-188 l0 -184 63 -2 c85 -2 170 -2 243 0 60 2 61 2 94 50 36 49 288 388 739
993 146 196 433 581 636 854 204 273 485 651 625 839 140 188 417 560 615 826
198 266 468 629 600 806 132 177 370 496 529 710 645 867 791 1063 796 1063 5
0 157 -204 796 -1063 159 -214 395 -531 525 -705 130 -174 401 -539 604 -811
202 -272 482 -648 622 -835 239 -321 512 -688 1278 -1716 182 -244 409 -549
505 -679 97 -129 191 -256 210 -283 33 -47 34 -47 94 -49 73 -2 158 -2 244 0
l62 2 0 184 c0 101 -3 186 -8 188 -4 2 -39 46 -77 98 -69 95 -267 361 -789
1061 -155 207 -441 592 -636 854 -195 262 -470 631 -610 819 -140 188 -392
526 -559 751 -168 226 -416 559 -551 740 -136 182 -385 517 -555 745 -277 373
-883 1185 -908 1218 -7 9 -10 1079 -8 3306 l3 3293 -98 91 c-54 51 -105 92
-114 92 -9 0 -55 -40 -102 -88z"/>
<path d="M15022 10870 c-189 -50 -345 -178 -432 -355 -55 -111 -70 -178 -70
-315 0 -208 56 -346 200 -491 146 -147 299 -205 520 -196 92 3 132 10 200 33
200 67 354 222 427 429 25 74 28 91 27 225 0 131 -2 153 -27 226 -73 219 -266
397 -487 448 -92 22 -266 20 -358 -4z"/>
<path d="M4613 10403 l-1443 -3 0 -190 0 -190 1788 5 c983 3 2049 8 2370 11
l582 6 0 184 0 184 -927 -2 c-511 -2 -1577 -4 -2370 -5z"/>
</g>
</svg>
